HIERARCHY
ROOT SpineBase
{
  OFFSET 0.000000 0.000000 0.000000
  CHANNELS 6 Xposition Yposition Zposition Zrotation Xrotation Yrotation
  JOINT SpineMid
  {
    OFFSET 0.000000 31.477896 0.000000
    CHANNELS 3 Zrotation Xrotation Yrotation
    JOINT SpineShoulder
    {
      OFFSET 0.111177 23.422252 -0.936505
      CHANNELS 3 Zrotation Xrotation Yrotation
      JOINT Neck
      {
        OFFSET 0.116720 7.749930 -0.623847
        CHANNELS 3 Zrotation Xrotation Yrotation
        JOINT Head
        {
          OFFSET -3.562736 9.071439 4.453068
          CHANNELS 3 Zrotation Xrotation Yrotation
          End Site
          {
            OFFSET 0 0 0
          }
        }
      }
      JOINT ShoulderLeft
      {
        OFFSET -6.130285 -5.441720 -15.202085
        CHANNELS 3 Zrotation Xrotation Yrotation
        JOINT ElbowLeft
        {
          OFFSET -1.548611 -21.414741 -2.114673
          CHANNELS 3 Zrotation Xrotation Yrotation
          JOINT WristLeft
          {
            OFFSET -5.559125 -18.372209 4.381051
            CHANNELS 3 Zrotation Xrotation Yrotation
            JOINT HandLeft
            {
              OFFSET 0.071830 -7.721087 2.830051
              CHANNELS 3 Zrotation Xrotation Yrotation
              JOINT HandTipLeft
              {
                OFFSET -2.169146 -6.338256 0.222456
                CHANNELS 3 Zrotation Xrotation Yrotation
                End Site
                {
                  OFFSET 0 0 0
                }
              }
              JOINT ThumbLeft
              {
                OFFSET 2.941329 -0.532533 -2.550800
                CHANNELS 3 Zrotation Xrotation Yrotation
                End Site
                {
                  OFFSET 0 0 0
                }
              }
            }
          }
        }
      }
      JOINT ShoulderRight
      {
        OFFSET 1.258944 -4.622113 -11.630202
        CHANNELS 3 Zrotation Xrotation Yrotation
        JOINT ElbowRight
        {
          OFFSET -9.252101 -23.876280 -5.774056
          CHANNELS 3 Zrotation Xrotation Yrotation
          JOINT WristRight
          {
            OFFSET -5.079136 -19.503530 5.515966
            CHANNELS 3 Zrotation Xrotation Yrotation
            JOINT HandRight
            {
              OFFSET 0.396689 -4.878133 1.858980
              CHANNELS 3 Zrotation Xrotation Yrotation
              JOINT HandTipRight
              {
                OFFSET -1.571994 -6.376264 0.359524
                CHANNELS 3 Zrotation Xrotation Yrotation
                End Site
                {
                  OFFSET 0 0 0
                }
              }
              JOINT ThumbRight
              {
                OFFSET 3.375012 0.069372 -3.265185
                CHANNELS 3 Zrotation Xrotation Yrotation
                End Site
                {
                  OFFSET 0 0 0
                }
              }
            }
          }
        }
      }
    }
  }
  JOINT HipLeft
  {
    OFFSET -5.096568 0.826584 0.120524
    CHANNELS 3 Zrotation Xrotation Yrotation
    JOINT KneeLeft
    {
      OFFSET 12.583733 -29.463204 8.545594
      CHANNELS 3 Zrotation Xrotation Yrotation
      JOINT AnkleLeft
      {
        OFFSET 2.208017 -37.733947 5.142112
        CHANNELS 3 Zrotation Xrotation Yrotation
        JOINT FootLeft
        {
          OFFSET -7.000443 -3.632548 -12.220010
          CHANNELS 3 Zrotation Xrotation Yrotation
          End Site
          {
            OFFSET 0 0 0
          }
        }
      }
    }
  }
  JOINT HipRight
  {
    OFFSET 5.444080 0.899257 -7.143866
    CHANNELS 3 Zrotation Xrotation Yrotation
    JOINT KneeRight
    {
      OFFSET -10.575417 -31.173917 -0.789880
      CHANNELS 3 Zrotation Xrotation Yrotation
      JOINT AnkleRight
      {
        OFFSET 5.778322 -36.545732 5.002361
        CHANNELS 3 Zrotation Xrotation Yrotation
        JOINT FootRight
        {
          OFFSET 4.498500 -3.092038 -12.066737
          CHANNELS 3 Zrotation Xrotation Yrotation
          End Site
          {
            OFFSET 0 0 0
          }
        }
      }
    }
  }
}
MOTION
Frames: 8
Frame Time: 0.033333
-15.179276 72.599414 363.997915 -0.000000 0.000000 34.573785 -0.000000 0.000000 -34.573785 -0.000000 0.000000 0.000000 -0.000000 0.000000 0.000000 0.000000 0.000000 0.000000 -0.000000 0.000000 0.000000 -0.000000 0.000000 0.000000 -0.000000 0.000000 0.000000 -0.000000 0.000000 0.000000 0.000000 0.000000 0.000000 0.000000 0.000000 0.000000 -0.000000 0.000000 0.000000 -0.000000 0.000000 0.000000 -0.000000 0.000000 0.000000 -0.000000 0.000000 0.000000 0.000000 0.000000 0.000000 0.000000 0.000000 0.000000 -0.000000 0.000000 -34.573785 -0.000000 0.000000 0.000000 -0.000000 0.000000 0.000000 0.000000 0.000000 0.000000 -0.000000 0.000000 -34.573785 -0.000000 0.000000 0.000000 -0.000000 0.000000 0.000000 0.000000 0.000000 0.000000
-15.331699 72.642575 363.868616 -0.275516 0.101483 34.169860 0.170959 -0.238707 -34.169260 -0.000000 0.000000 0.000000 -0.758381 -0.107729 0.330274 0.000000 0.000000 0.000000 0.053648 1.598625 -0.121495 -0.050278 -1.598735 0.120045 -0.182155 -2.031635 -0.088326 -0.193745 0.204948 0.700085 0.000000 0.000000 0.000000 0.000000 0.000000 0.000000 -0.000000 0.000000 0.000000 -0.000000 0.000000 0.000000 -0.660895 -0.638958 -0.306996 -1.086591 -0.158850 0.403273 0.000000 0.000000 0.000000 0.000000 0.000000 0.000000 0.170959 -0.238707 -34.169260 -0.000000 0.000000 0.000000 -0.141559 0.605317 -0.675958 0.000000 0.000000 0.000000 0.170959 -0.238707 -34.169260 -0.000000 0.000000 0.000000 -1.230409 -2.185405 1.756625 0.000000 0.000000 0.000000
-15.476425 72.682570 363.760363 -0.519592 0.184156 33.848866 0.328961 -0.442352 -33.846761 -0.000000 0.000000 0.000000 -1.413261 -0.205361 0.614111 0.000000 0.000000 0.000000 0.177253 3.166715 -0.250806 -0.163647 -3.167446 0.241382 -0.235293 -3.795071 -0.127808 -0.495279 0.494193 1.239977 0.000000 0.000000 0.000000 0.000000 0.000000 0.000000 -0.000000 0.000000 0.000000 -0.000000 0.000000 0.000000 -1.091527 -1.197569 -0.523092 -2.058112 -0.279025 0.706099 0.000000 0.000000 0.000000 0.000000 0.000000 0.000000 0.328961 -0.442352 -33.846761 -0.000000 0.000000 0.000000 -0.278473 1.185281 -1.293490 0.000000 0.000000 0.000000 1.230283 -1.091884 -33.850125 -1.860064 0.534132 -0.004524 -1.511870 -4.574293 3.388643 0.000000 0.000000 0.000000
-15.613454 72.719399 363.673158 -0.731987 0.247906 33.614266 0.472374 -0.611662 -33.610161 -0.000000 0.000000 0.000000 -1.964990 -0.291369 0.852043 0.000000 0.000000 0.000000 0.374982 4.667150 -0.388530 -0.344504 -4.669493 0.359203 -0.161377 -5.316853 -0.114200 -0.900413 0.947008 1.608846 0.000000 0.000000 0.000000 0.000000 0.000000 0.000000 -0.000000 0.000000 0.000000 -0.000000 0.000000 0.000000 -1.329710 -1.702815 -0.661868 -2.883128 -0.329174 0.925820 0.000000 0.000000 0.000000 0.000000 0.000000 0.000000 0.472374 -0.611662 -33.610161 -0.000000 0.000000 0.000000 -0.411220 1.734622 -1.846555 0.000000 0.000000 0.000000 1.771622 -1.554060 -33.603899 -2.653335 0.794999 -0.001233 -1.979944 -6.210259 4.770119 0.000000 0.000000 0.000000
-15.742786 72.753062 363.607001 -0.912497 0.292643 33.468804 0.599855 -0.747313 -33.462562 -0.000000 0.000000 0.000000 -2.413887 -0.364480 1.044545 0.000000 0.000000 0.000000 0.648263 6.062016 -0.534547 -0.595119 -6.067444 0.468680 0.039911 -6.618700 -0.043779 -1.406151 1.611526 1.802944 0.000000 0.000000 0.000000 0.000000 0.000000 0.000000 -0.000000 0.000000 0.000000 -0.000000 0.000000 0.000000 -1.397863 -2.174385 -0.731526 -3.544239 -0.286765 1.073540 0.000000 0.000000 0.000000 0.000000 0.000000 0.000000 0.633466 -1.582564 -33.609343 -0.490347 0.677011 0.150361 -0.540349 2.248413 -2.329878 0.000000 0.000000 0.000000 2.259884 -1.964607 -33.441184 -3.355862 1.052269 0.005395 -2.189967 -7.185169 5.824750 0.000000 0.000000 0.000000
-15.864421 72.783559 363.561890 -1.060950 0.318300 33.414485 0.710376 -0.849895 -33.406269 -0.000000 0.000000 0.000000 -2.760172 -0.423663 1.192001 0.000000 0.000000 0.000000 0.995320 7.315273 -0.687724 -1.384004 -8.054555 0.609291 0.828540 -6.994648 -0.028013 -2.009989 2.504792 1.825315 0.000000 0.000000 0.000000 0.000000 0.000000 0.000000 1.076613 -0.422218 -0.093212 -1.128549 1.207826 -0.117725 -1.245055 -3.419739 -0.533782 -4.032652 -0.134319 1.155004 0.000000 0.000000 0.000000 0.000000 0.000000 0.000000 0.914047 -2.101023 -33.549340 -1.864134 1.516312 0.074657 0.330808 2.133689 -2.638654 0.000000 0.000000 0.000000 2.692636 -2.326261 -33.365586 -3.967733 1.306320 0.015081 -2.122955 -7.404770 6.487880 0.000000 0.000000 0.000000
-16.130146 72.813924 363.542380 -1.325933 0.326292 33.799629 0.920455 -1.008660 -33.787750 -0.000000 0.000000 0.000000 -2.955005 -0.521337 1.248083 0.000000 0.000000 0.000000 1.076590 9.281479 -0.860046 -1.609117 -10.331462 0.736301 1.990227 -7.681407 0.319279 -2.890853 5.207237 1.031563 0.000000 0.000000 0.000000 0.000000 0.000000 0.000000 1.548769 -0.409857 -0.211495 -1.550310 0.403988 0.222501 -1.042535 -2.117610 -0.585103 -4.166147 0.522662 0.754466 0.000000 0.000000 0.000000 0.000000 0.000000 0.000000 1.628501 -3.284621 -33.862572 -3.572407 2.761534 0.030089 0.449824 3.576517 -4.213298 0.000000 0.000000 0.000000 3.432478 -2.977252 -33.698832 -4.967679 1.904322 0.057222 -1.401731 -6.641092 6.263071 0.000000 0.000000 0.000000
-16.165763 72.830239 363.563421 -1.277218 0.287897 33.803319 0.901251 -0.949725 -33.792640 -0.000000 0.000000 0.000000 -3.216078 -1.023285 1.166460 0.000000 0.000000 0.000000 1.831172 10.113322 -1.068009 -2.418223 -11.326505 0.794776 2.618757 -8.464448 0.519315 -3.917678 4.698643 1.446400 0.000000 0.000000 0.000000 0.000000 0.000000 0.000000 2.168134 -0.635414 -0.268465 -2.523867 1.708019 -0.081922 -0.278290 -4.157706 -0.137573 -4.168624 0.222429 1.030293 0.000000 0.000000 0.000000 0.000000 0.000000 0.000000 1.945827 -3.754150 -33.793201 -4.637797 3.427921 -0.022060 0.345180 3.937247 -3.611333 0.000000 0.000000 0.000000 3.543589 -3.011698 -33.702111 -5.288429 2.227847 0.097322 -0.534220 -5.019138 5.863158 0.000000 0.000000 0.000000
